<svg preserveAspectRatio="none" width="100%" height="100%" overflow="visible" style="display: block;" viewBox="0 0 16.6564 16.6564" fill="none" xmlns="http://www.w3.org/2000/svg">
<path id="Vector" d="M15.8224 8.72734C15.7443 10.1741 15.2488 11.5673 14.3958 12.7385C13.5428 13.9097 12.3688 14.8087 11.0158 15.327C9.66273 15.8452 8.18854 15.9604 6.77141 15.6586C5.35428 15.3569 4.05489 14.6511 3.03031 13.6266C2.00574 12.6022 1.29984 11.3029 0.997944 9.88576C0.696052 8.46867 0.811094 6.99446 1.32916 5.64136C1.84723 4.28825 2.74615 3.11417 3.91724 2.26104C5.08834 1.40791 6.48148 0.912263 7.92826 0.834009C8.26576 0.815676 8.44243 1.21734 8.26326 1.50318C7.66401 2.46197 7.40741 3.59557 7.53534 4.71897C7.66328 5.84237 8.1682 6.88924 8.9677 7.68874C9.7672 8.48824 10.8141 8.99316 11.9375 9.1211C13.0609 9.24903 14.1945 8.99243 15.1533 8.39318C15.4399 8.21401 15.8408 8.38984 15.8224 8.72734Z" stroke="var(--stroke-0, white)" stroke-opacity="0.4" stroke-width="1.66667" stroke-linecap="round" stroke-linejoin="round"/>
</svg>
