<svg preserveAspectRatio="none" width="100%" height="100%" overflow="visible" style="display: block;" viewBox="0 0 32 32" fill="none" xmlns="http://www.w3.org/2000/svg">
<g id="Icon">
<path id="Vector" d="M16 4C16.8889 7.55556 18.6667 10.4444 21.3333 12.6667C24 14.8889 25.3333 17.3333 25.3333 20C25.3333 22.4754 24.35 24.8493 22.5997 26.5997C20.8493 28.35 18.4754 29.3333 16 29.3333C13.5246 29.3333 11.1507 28.35 9.40034 26.5997C7.65 24.8493 6.66667 22.4754 6.66667 20C6.66667 18.5575 7.13452 17.154 8 16C8 16.8841 8.35119 17.7319 8.97631 18.357C9.60143 18.9821 10.4493 19.3333 11.3333 19.3333C12.2174 19.3333 13.0652 18.9821 13.6904 18.357C14.3155 17.7319 14.6667 16.8841 14.6667 16C14.6667 13.3333 12.6667 12 12.6667 9.33333C12.6667 7.55556 13.7778 5.77778 16 4Z" stroke="var(--stroke-0, white)" stroke-width="2.66667" stroke-linecap="round" stroke-linejoin="round"/>
</g>
</svg>
