<svg preserveAspectRatio="none" width="100%" height="100%" overflow="visible" style="display: block;" viewBox="0 0 72 82" fill="none" xmlns="http://www.w3.org/2000/svg">
<g id="Icon" filter="url(#filter0_d_0_4)">
<path id="Vector" d="M36 22C37.3333 27.3334 40 31.6667 44 35C48 38.3334 50 42 50 46C50 49.7131 48.525 53.274 45.8995 55.8995C43.274 58.525 39.713 60 36 60C32.287 60 28.726 58.525 26.1005 55.8995C23.475 53.274 22 49.7131 22 46C22 43.8363 22.7018 41.731 24 40C24 41.3261 24.5268 42.5979 25.4645 43.5356C26.4021 44.4732 27.6739 45 29 45C30.3261 45 31.5979 44.4732 32.5355 43.5356C33.4732 42.5979 34 41.3261 34 40C34 36 31 34 31 30C31 27.3334 32.6667 24.6667 36 22Z" stroke="var(--stroke-0, #FFC9C9)" stroke-width="4" stroke-linecap="round" stroke-linejoin="round"/>
</g>
<defs>
<filter id="filter0_d_0_4" x="-8" y="-3.99998" width="88" height="88" filterUnits="userSpaceOnUse" color-interpolation-filters="sRGB">
<feFlood flood-opacity="0" result="BackgroundImageFix"/>
<feColorMatrix in="SourceAlpha" type="matrix" values="0 0 0 0 0 0 0 0 0 0 0 0 0 0 0 0 0 0 127 0" result="hardAlpha"/>
<feOffset/>
<feGaussianBlur stdDeviation="10"/>
<feColorMatrix type="matrix" values="0 0 0 0 0.937255 0 0 0 0 0.266667 0 0 0 0 0.266667 0 0 0 0.5 0"/>
<feBlend mode="normal" in2="BackgroundImageFix" result="effect1_dropShadow_0_4"/>
<feBlend mode="normal" in="SourceGraphic" in2="effect1_dropShadow_0_4" result="shape"/>
</filter>
</defs>
</svg>
