<svg preserveAspectRatio="none" width="100%" height="100%" overflow="visible" style="display: block;" viewBox="0 0 58.6758 61.3403" fill="none" xmlns="http://www.w3.org/2000/svg">
<g id="Icon" filter="url(#filter0_d_0_4)">
<path id="Vector" d="M18.6712 33.3368C18.4189 33.3377 18.1715 33.2669 17.9578 33.1328C17.7441 32.9986 17.5729 32.8066 17.4639 32.579C17.355 32.3514 17.3129 32.0976 17.3425 31.847C17.3722 31.5964 17.4723 31.3594 17.6312 31.1635L30.8312 17.5635C30.9302 17.4492 31.0652 17.372 31.2139 17.3445C31.3626 17.317 31.5162 17.3408 31.6495 17.4121C31.7829 17.4835 31.888 17.598 31.9477 17.737C32.0073 17.8759 32.018 18.031 31.9779 18.1768L29.4179 26.2035C29.3424 26.4055 29.317 26.6228 29.344 26.8368C29.371 27.0508 29.4494 27.255 29.5727 27.432C29.6959 27.609 29.8602 27.7535 30.0516 27.853C30.2429 27.9526 30.4555 28.0042 30.6712 28.0035H40.0045C40.2569 28.0026 40.5042 28.0734 40.7179 28.2075C40.9316 28.3416 41.1029 28.5337 41.2118 28.7613C41.3207 28.9889 41.3628 29.2427 41.3332 29.4933C41.3036 29.7438 41.2035 29.9809 41.0445 30.1768L27.8445 43.7768C27.7455 43.8911 27.6106 43.9683 27.4619 43.9958C27.3132 44.0233 27.1596 43.9995 27.0262 43.9281C26.8929 43.8568 26.7878 43.7423 26.7281 43.6033C26.6684 43.4644 26.6578 43.3093 26.6979 43.1635L29.2579 35.1368C29.3334 34.9348 29.3587 34.7174 29.3318 34.5035C29.3048 34.2895 29.2263 34.0852 29.1031 33.9082C28.9799 33.7312 28.8155 33.5868 28.6242 33.4873C28.4328 33.3877 28.2202 33.3361 28.0045 33.3368H18.6712Z" stroke="var(--stroke-0, #00D492)" stroke-width="2.66667" stroke-linecap="round" stroke-linejoin="round"/>
</g>
<defs>
<filter id="filter0_d_0_4" x="-2.66212" y="-1.32987" width="64" height="64" filterUnits="userSpaceOnUse" color-interpolation-filters="sRGB">
<feFlood flood-opacity="0" result="BackgroundImageFix"/>
<feColorMatrix in="SourceAlpha" type="matrix" values="0 0 0 0 0 0 0 0 0 0 0 0 0 0 0 0 0 0 127 0" result="hardAlpha"/>
<feOffset/>
<feGaussianBlur stdDeviation="8"/>
<feColorMatrix type="matrix" values="0 0 0 0 1 0 0 0 0 1 0 0 0 0 1 0 0 0 0.3 0"/>
<feBlend mode="normal" in2="BackgroundImageFix" result="effect1_dropShadow_0_4"/>
<feBlend mode="normal" in="SourceGraphic" in2="effect1_dropShadow_0_4" result="shape"/>
</filter>
</defs>
</svg>
