<svg preserveAspectRatio="none" width="100%" height="100%" overflow="visible" style="display: block;" viewBox="0 0 57.3333 58.6667" fill="none" xmlns="http://www.w3.org/2000/svg">
<g id="Icon" filter="url(#filter0_d_0_15)">
<path id="Vector" d="M21.3333 25.3333C23.5425 25.3333 25.3333 23.5425 25.3333 21.3333C25.3333 19.1242 23.5425 17.3333 21.3333 17.3333C19.1242 17.3333 17.3333 19.1242 17.3333 21.3333C17.3333 23.5425 19.1242 25.3333 21.3333 25.3333Z" stroke="var(--stroke-0, #FDC700)" stroke-width="2.66667" stroke-linecap="round" stroke-linejoin="round"/>
<path id="Vector_2" d="M24.16 24.16L29.3333 29.3333" stroke="var(--stroke-0, #FDC700)" stroke-width="2.66667" stroke-linecap="round" stroke-linejoin="round"/>
<path id="Vector_3" d="M40 18.6667L24.16 34.5067" stroke="var(--stroke-0, #FDC700)" stroke-width="2.66667" stroke-linecap="round" stroke-linejoin="round"/>
<path id="Vector_4" d="M21.3333 41.3333C23.5425 41.3333 25.3333 39.5425 25.3333 37.3333C25.3333 35.1242 23.5425 33.3333 21.3333 33.3333C19.1242 33.3333 17.3333 35.1242 17.3333 37.3333C17.3333 39.5425 19.1242 41.3333 21.3333 41.3333Z" stroke="var(--stroke-0, #FDC700)" stroke-width="2.66667" stroke-linecap="round" stroke-linejoin="round"/>
<path id="Vector_5" d="M33.0667 33.0667L40 40" stroke="var(--stroke-0, #FDC700)" stroke-width="2.66667" stroke-linecap="round" stroke-linejoin="round"/>
</g>
<defs>
<filter id="filter0_d_0_15" x="-2.66667" y="-2.66667" width="64" height="64" filterUnits="userSpaceOnUse" color-interpolation-filters="sRGB">
<feFlood flood-opacity="0" result="BackgroundImageFix"/>
<feColorMatrix in="SourceAlpha" type="matrix" values="0 0 0 0 0 0 0 0 0 0 0 0 0 0 0 0 0 0 127 0" result="hardAlpha"/>
<feOffset/>
<feGaussianBlur stdDeviation="8"/>
<feColorMatrix type="matrix" values="0 0 0 0 1 0 0 0 0 1 0 0 0 0 1 0 0 0 0.3 0"/>
<feBlend mode="normal" in2="BackgroundImageFix" result="effect1_dropShadow_0_15"/>
<feBlend mode="normal" in="SourceGraphic" in2="effect1_dropShadow_0_15" result="shape"/>
</filter>
</defs>
</svg>
