<svg preserveAspectRatio="none" width="100%" height="100%" overflow="visible" style="display: block;" viewBox="0 0 61.3285 61.3285" fill="none" xmlns="http://www.w3.org/2000/svg">
<g id="Icon" filter="url(#filter0_d_0_8)">
<path id="Vector" d="M30.6667 27.9952H20C18.5272 27.9952 17.3333 29.1891 17.3333 30.6618V41.3285C17.3333 42.8013 18.5272 43.9952 20 43.9952H30.6667C32.1394 43.9952 33.3333 42.8013 33.3333 41.3285V30.6618C33.3333 29.1891 32.1394 27.9952 30.6667 27.9952Z" stroke="var(--stroke-0, #00D3F2)" stroke-width="2.66667" stroke-linecap="round" stroke-linejoin="round"/>
<path id="Vector_2" d="M38.56 33.3285L43.2267 28.6619C43.7214 28.1132 43.9952 27.4006 43.9952 26.6619C43.9952 25.9231 43.7214 25.2105 43.2267 24.6619L36.56 18.1019C36.0113 17.6071 35.2988 17.3333 34.56 17.3333C33.8212 17.3333 33.1087 17.6071 32.56 18.1019L28 22.6619" stroke="var(--stroke-0, #00D3F2)" stroke-width="2.66667" stroke-linecap="round" stroke-linejoin="round"/>
<path id="Vector_3" d="M22.6667 38.6618H22.68" stroke="var(--stroke-0, #00D3F2)" stroke-width="2.66667" stroke-linecap="round" stroke-linejoin="round"/>
<path id="Vector_4" d="M28 33.3285H28.0133" stroke="var(--stroke-0, #00D3F2)" stroke-width="2.66667" stroke-linecap="round" stroke-linejoin="round"/>
<path id="Vector_5" d="M34.6667 22.6618H34.68" stroke="var(--stroke-0, #00D3F2)" stroke-width="2.66667" stroke-linecap="round" stroke-linejoin="round"/>
<path id="Vector_6" d="M38.6667 26.6618H38.68" stroke="var(--stroke-0, #00D3F2)" stroke-width="2.66667" stroke-linecap="round" stroke-linejoin="round"/>
</g>
<defs>
<filter id="filter0_d_0_8" x="-1.33333" y="-1.33815" width="64" height="64" filterUnits="userSpaceOnUse" color-interpolation-filters="sRGB">
<feFlood flood-opacity="0" result="BackgroundImageFix"/>
<feColorMatrix in="SourceAlpha" type="matrix" values="0 0 0 0 0 0 0 0 0 0 0 0 0 0 0 0 0 0 127 0" result="hardAlpha"/>
<feOffset/>
<feGaussianBlur stdDeviation="8"/>
<feColorMatrix type="matrix" values="0 0 0 0 1 0 0 0 0 1 0 0 0 0 1 0 0 0 0.3 0"/>
<feBlend mode="normal" in2="BackgroundImageFix" result="effect1_dropShadow_0_8"/>
<feBlend mode="normal" in="SourceGraphic" in2="effect1_dropShadow_0_8" result="shape"/>
</filter>
</defs>
</svg>
