<svg preserveAspectRatio="none" width="100%" height="100%" overflow="visible" style="display: block;" viewBox="0 0 69.9866 49.9729" fill="none" xmlns="http://www.w3.org/2000/svg">
<path id="Vector" d="M33.5317 2.52948C33.6755 2.26817 33.8869 2.05026 34.1437 1.89849C34.4005 1.74673 34.6933 1.66667 34.9917 1.66667C35.29 1.66667 35.5828 1.74673 35.8396 1.89849C36.0964 2.05026 36.3078 2.26817 36.4517 2.52948L46.2917 21.2095C46.5263 21.642 46.8538 22.0172 47.2507 22.3082C47.6475 22.5992 48.1039 22.7987 48.587 22.8923C49.0701 22.986 49.5679 22.9716 50.0448 22.8501C50.5216 22.7285 50.9657 22.503 51.345 22.1895L65.6017 9.97615C65.8753 9.75355 66.2126 9.62354 66.5648 9.60482C66.9171 9.5861 67.2663 9.67963 67.562 9.87197C67.8577 10.0643 68.0848 10.3455 68.2105 10.6751C68.3362 11.0047 68.3542 11.3657 68.2617 11.7061L58.815 45.8595C58.6222 46.5584 58.2067 47.1753 57.6317 47.6169C57.0566 48.0584 56.3533 48.3004 55.6283 48.3062H14.3583C13.6328 48.3011 12.9287 48.0594 12.353 47.6179C11.7772 47.1763 11.3613 46.5589 11.1683 45.8595L1.72498 11.7095C1.63248 11.3691 1.65039 11.0081 1.77612 10.6784C1.90185 10.3488 2.12892 10.0676 2.42465 9.8753C2.72038 9.68297 3.06951 9.58943 3.42178 9.60815C3.77406 9.62687 4.1113 9.75689 4.38498 9.97948L18.6383 22.1928C19.0176 22.5063 19.4617 22.7319 19.9385 22.8534C20.4154 22.9749 20.9132 22.9894 21.3963 22.8957C21.8794 22.802 22.3358 22.6025 22.7326 22.3115C23.1295 22.0206 23.457 21.6454 23.6916 21.2128L33.5317 2.52948Z" stroke="var(--stroke-0, white)" stroke-opacity="0.1" stroke-width="3.33333" stroke-linecap="round" stroke-linejoin="round"/>
</svg>
